{"title":"The Matador[x264][AC3(5.1)] Nordic_Sub.mkv","uid":5234254,"size":1584866632,"categoryP":"video","categoryS":"movies","magnet":"?xt=urn:btih:1f0e0d73f66148b32392302f8c5920814c5f45a2&amp;dn=The+Matador%5Bx264%5D%5BAC3%285.1%29%5D+Nordic_Sub.mkv&amp;tr=udp%3A%2F%2Ftracker.openbittorrent.com%3A80&amp;tr=udp%3A%2F%2Fopen.demonii.com%3A1337&amp;tr=udp%3A%2F%2Ftracker.coppersurfer.tk%3A6969&amp;tr=udp%3A%2F%2Fexodus.desync.com%3A6969","seeders":0,"leechers":1,"uploader":"Zen_Bud","files":-1,"time":1261468231,"description":"General\nComplete name                    : The Matador.mkv\nFormat                           : Matroska\nFile size                        : 1.48 GiB\nDuration                         : 1h 33mn\nOverall bit rate                 : 2 269 Kbps\n\n\nVideo\nID                               : 1\nFormat                           : AVC\n\nCodec ID                         : V_MPEG4/ISO/AVC\nDuration                         : 1h 33mn\nBit rate                         : 1 776 Kbps\nNominal bit rate                 : 1 800 Kbps\nWidth                            : 720 pixels\nHeight                           : 438 pixels\nDisplay aspect ratio             : 2.35:1\nFrame rate                       : 25.000 fps\nResolution                       : 8 bits\nColorimetry                      : 4:2:0\nScan type                        : Progressive\nBits/(Pixel*Frame)               : 0.225\nStream size                      : 1.16 GiB (78%)\nWriting library                  : x264 core 79\n\n\nAudio\nID                               : 2\nFormat                           : AC-3\nFormat/Info                      : Audio Coding 3\nCodec ID                         : A_AC3\nDuration                         : 1h 33mn\nBit rate mode                    : Constant\nBit rate                         : 448 Kbps\nChannel(s)                       : 6 channels\nChannel positions                : Front: L C R, Surround: L R, LFE\nSampling rate                    : 48.0 KHz\nStream size                      : 298 MiB (20%)\nLanguage                         : English\n\nText #1\nLanguage                         : Danish\n\nText #2\nLanguage                         : Finnish\n\nText #3\nLanguage                         : Norwegian\n\nText #4\nID                               : 6\nLanguage                         : Swedish\n","torrent":{"xt":"urn:btih:1f0e0d73f66148b32392302f8c5920814c5f45a2","amp;dn":"The+Matador%5Bx264%5D%5BAC3%285.1%29%5D+Nordic_Sub.mkv","amp;tr":["udp%3A%2F%2Ftracker.openbittorrent.com%3A80","udp%3A%2F%2Fopen.demonii.com%3A1337","udp%3A%2F%2Ftracker.coppersurfer.tk%3A6969","udp%3A%2F%2Fexodus.desync.com%3A6969"],"infoHash":"1f0e0d73f66148b32392302f8c5920814c5f45a2","infoHashBuffer":{"type":"Buffer","data":[31,14,13,115,246,97,72,179,35,146,48,47,140,89,32,129,76,95,69,162]},"announce":[],"urlList":[]}}